<svg id="Layer_1" data-name="Layer 1" xmlns="http://www.w3.org/2000/svg" viewBox="0 0 282.8 9.06"><defs><style>.cls-1{fill:#1d1d1b;}</style></defs><path class="cls-1" d="M12.42,19.88c2.1-.23,4.17-.63,6.23-1.05,2.25-.46,4.53-.73,6.79-1.13,2.1-.37,4.24-.24,6.35-.51a52.08,52.08,0,0,1,6.73-.2,25.5,25.5,0,0,1,6.56,1.33,54.8,54.8,0,0,0,6.6,1.24c4.61.63,9.19.68,13.84.92,2.35.11,4.69.44,7,.57s4.76.12,7.15.1c4.64,0,9.35.2,14-.1,4.48-.28,8.94-1.14,13.4-1.69s9.21-.88,13.78-1.61c9.19-1.48,18.63-.55,27.9-.86,9.43-.32,18.89-.08,28.32-.11a134.31,134.31,0,0,1,13.75.6c4.75.48,9.5,1.05,14.25,1.54a244.19,244.19,0,0,0,28.1,1.2c4.74-.06,9.48-.44,14.22-.61,4.41-.17,8.76-.33,13.14-.92s8.95-1.48,13.43-2.24c2.33-.4,4.66-.74,7-1.05.84-.11,1.69-.17,2.53-.29a26.51,26.51,0,0,1,3.07-.49c1.89,0,3.73-.24,5.62-.21.3,0-.84-.92-.92-1-.45-.35-1.35-1.19-2-1.2a64.42,64.42,0,0,0-11,.95c-4.3.68-8.6,1.35-12.89,2.1-4.68.81-9.37,1.57-14.1,1.91s-9.27.28-13.9.54a207.2,207.2,0,0,1-28.08-.23c-9.48-.74-18.94-2.42-28.45-2.76-9.34-.33-18.73,0-28.08,0-4.61,0-9.22.21-13.84.2s-9.38-.05-14.07,0c-4.45,0-8.85,1.13-13.27,1.56s-9,1-13.5,1.6c-2.44.34-4.87.75-7.33.91s-4.74.05-7.11.06c-4.67,0-9.36.18-14-.07-2.35-.12-4.68-.45-7-.57s-4.67-.13-7-.24a64.26,64.26,0,0,1-13.44-1.92,25.41,25.41,0,0,0-6.56-1.33,51.34,51.34,0,0,0-5.95.1c-2.1.24-4.23.22-6.33.49s-4.53.64-6.74,1.06c-2.36.46-4.69,1-7.08,1.24-.31,0,.83.91.92,1,.39.29,1.42,1.25,2,1.19Z" transform="translate(-9.47 -12.14)"/></svg>