<svg viewBox="0 0 406 112" xmlns="http://www.w3.org/2000/svg">
<path d="M404.993 104.055C404.542 104.096 404.092 103.967 403.721 103.691C403.35 103.414 403.082 103.007 402.963 102.541C402.171 98.1079 401.879 92.3686 401.879 83.1113C401.893 76.7329 402.255 70.3607 402.963 64.0271C403.116 63.063 403.185 62.7229 403.254 62.1886C403.323 61.6543 403.032 61.0022 401.906 61.0022H392.761C391.552 61.0022 391.538 62.4992 392.914 62.4992C393.345 62.4679 393.772 62.6038 394.117 62.8818C394.462 63.1598 394.701 63.5613 394.79 64.0124C395.457 67.2778 395.816 70.6064 395.861 73.9483V77.6562C395.568 78.1449 395.221 78.4128 394.847 78.1301C393.284 76.6709 391.251 75.9162 389.177 76.0252C385.369 76.0252 379.058 81.6894 379.058 91.403C379.058 101.117 383.436 106.305 387.328 106.305C392.874 106.305 394.124 101.042 395.014 101.916C394.897 102.775 394.702 103.619 394.43 104.437C394.222 105.06 394.263 105.534 395.43 105.534H405.464C406.129 105.566 406.379 104.055 404.993 104.055ZM394.485 98.2418C393.905 98.9207 393.158 99.4134 392.33 99.6648C391.501 99.9163 390.623 99.9164 389.795 99.6652C387.682 99.1162 386.001 96.5505 385.264 94.5133C384.763 92.8791 384.487 91.1759 384.444 89.457C384.222 85.8536 385.264 77.6385 390.115 77.6385C392.977 77.6385 395.007 80.6929 395.869 84.2227V91.7106C395.855 93.0354 395.828 94.1129 395.786 95.0476C395.588 96.2014 395.146 97.2918 394.494 98.2359L394.485 98.2418Z"/>
<path d="M255.513 83.7252C254.541 79.2328 245.66 71.4327 236.459 79.9143C226.925 89.1524 233.555 106.442 243.811 106.442C254.067 106.442 255.222 97.5457 254.694 94.8019C254.694 94.8019 254.318 92.934 253.124 94.8019C246.355 102.751 240.782 96.5079 240.101 94.4751C241.52 93.5551 254.833 85.7404 254.833 85.7404C255.075 85.4758 255.26 85.159 255.378 84.8114C255.495 84.4638 255.541 84.0935 255.513 83.7252ZM247.619 87.336C245.105 89.1302 242.497 90.7688 239.808 92.2436C239.363 92.4511 238.904 92.956 238.306 91.2353L237.945 90.3153C237.701 89.5402 237.488 88.7544 237.306 87.9601C235.471 80.0571 242.281 77.6842 245.507 79.1371C248.732 80.5899 248.633 86.3498 247.619 87.336Z"/>
<path d="M274.291 89.2701C271.818 87.7275 268.955 87.3728 266.328 86.2158C264.243 85.2958 261.381 83.7988 261.644 80.9961C261.992 77.2293 265.619 76.3403 268.128 76.6361C268.698 76.7097 270.741 77.1999 270.06 78.4452C269.525 78.8952 269.106 79.483 268.843 80.1533C268.579 80.8236 268.48 81.5544 268.554 82.277C268.628 82.9995 268.873 83.6901 269.266 84.2839C269.659 84.8776 270.187 85.3549 270.8 85.671C271.414 85.9871 272.092 86.1316 272.773 86.0908C273.453 86.05 274.112 85.8254 274.689 85.438C275.265 85.0506 275.74 84.5132 276.068 83.8762C276.396 83.2393 276.567 82.5238 276.565 81.7969V81.7233C276.577 80.7597 276.271 79.8222 275.703 79.0737L275.689 79.059C275.575 78.9099 275.449 78.7711 275.313 78.6439C272.84 75.9311 269.087 74.4473 264.152 75.382C258.954 76.3609 255.979 81.0609 256.341 84.0122C256.702 86.9635 257.203 90.2107 268.626 94.6105C273.617 96.5241 274.324 100.572 272.1 102.781C270.789 103.917 269.131 104.498 267.444 104.412C265.237 104.354 262.58 103.824 262.872 102.411C263.467 102.07 263.964 101.563 264.309 100.943C264.655 100.324 264.835 99.616 264.831 98.8954C264.783 97.6626 264.304 96.4937 263.489 95.6183C262.674 94.7429 261.581 94.2244 260.426 94.1645C259.301 94.1994 258.232 94.6947 257.44 95.5478C256.648 96.4009 256.194 97.5463 256.173 98.7467C256.154 99.7679 256.507 100.757 257.159 101.505H257.131C259.024 103.638 261.477 105.111 264.168 105.731C268.824 107.021 274.494 105.346 277.219 100.986C278.001 99.7449 278.422 98.2846 278.427 96.789C278.415 95.2591 278.027 93.7595 277.301 92.44C276.575 91.1205 275.537 90.0275 274.291 89.2701Z" fill="white"/>
<path d="M295.388 91.1396C294.402 89.3158 293.457 90.6347 294.221 92.0743C294.667 93.1947 294.921 94.3912 294.972 95.6071C295.18 97.6237 295.055 100.234 293.61 101.747C293.131 102.224 292.513 102.511 291.859 102.562C289.677 102.562 288.621 100.694 288.621 97.5207C288.621 95.6527 288.621 86.1614 288.635 78.4364C289.081 78.0718 289.629 77.8784 290.191 77.8874C290.915 77.9116 291.62 78.1452 292.229 78.5631C292.838 78.981 293.33 79.5675 293.651 80.2602L294.708 76.5229H289.697C289.318 76.5329 288.946 76.4075 288.641 76.1666V68.056C288.641 68.0707 288.627 68.056 288.627 68.056C288.613 67.136 287.778 66.8255 287.523 68.3681C286.704 73.1285 279.018 76.7319 278.364 76.9689C277.71 77.2059 277.739 77.933 278.656 78.0508C279.657 78.0802 280.796 77.2353 281.228 79.43C281.242 85.2723 281.2 96.7493 281.2 97.8916C281.2 99.3739 281.645 105.736 288.845 105.736C296.444 105.745 298.084 96.5065 295.388 91.1396Z" fill="white"/>
<path d="M331.471 76.5022C330.97 76.5022 329.066 76.5169 329.066 76.5169C327.649 76.5169 321.867 76.5316 321.145 76.5316C320.422 76.5316 320.477 77.2132 320.852 77.4663C321.697 77.9479 322.385 78.6922 322.824 79.6005C323.264 80.5088 323.434 81.5382 323.312 82.552C322.564 85.1846 321.547 87.721 320.277 90.1151C320.001 90.6788 319.499 90.8113 319.137 90.3373C317.643 87.0132 316.709 83.434 316.378 79.7641C316.35 79.1562 316.24 78.4585 317.068 78.1332C317.896 77.8078 317.873 76.514 317.082 76.514H306.714C305.213 76.514 306.755 77.8785 307.924 79.583C308.035 79.7612 308.549 80.7106 309.285 82.2517C309.271 82.3493 309.262 82.4476 309.258 82.5461C308.51 85.1787 307.492 87.7151 306.223 90.1092C305.947 90.6729 305.444 90.8054 305.083 90.3314C303.589 87.0072 302.655 83.4281 302.324 79.7582C302.296 79.1503 302.186 78.4526 303.014 78.1273C303.841 77.802 303.819 76.5081 303.027 76.5081H292.659C291.158 76.5081 291.95 77.8726 293.118 79.5772C295.397 83.0318 297.33 86.732 298.886 90.617C300.288 94.2749 301.486 98.0183 302.473 101.828C302.611 102.347 303.349 105.46 303.459 105.802C303.626 106.307 304.182 106.366 304.349 105.861C305.406 101.22 306.406 99.2031 309.033 96.9333C310.312 95.8057 309.227 95.0948 308.602 94.7253C308.03 94.351 307.507 93.8971 307.046 93.3755C306.991 93.1759 306.975 92.9663 306.998 92.7597C307.022 92.5531 307.085 92.3539 307.184 92.1744C307.546 91.3736 309.143 87.2064 310.312 84.4494C311.239 86.4826 312.119 88.5396 312.952 90.6185C314.357 94.2754 315.555 98.019 316.539 101.829C316.677 102.349 317.415 105.462 317.526 105.803C317.693 106.308 318.249 106.367 318.416 105.862C319.472 101.221 320.473 99.2045 323.099 96.9347C324.378 95.8072 323.294 95.0962 322.669 94.7268C322.096 94.3525 321.573 93.8986 321.113 93.377C321.058 93.1773 321.042 92.9678 321.065 92.7612C321.089 92.5546 321.152 92.3554 321.251 92.1758C321.738 91.0939 324.545 83.709 325.42 82.2562C325.953 81.19 326.69 80.255 327.583 79.5116C328.476 78.7682 329.506 78.2329 330.605 77.9403C331.013 77.8694 331.41 77.7396 331.786 77.5547C332.358 77.0807 332.107 76.5022 331.471 76.5022Z" fill="white"/>
<path d="M307.757 79.2754C307.299 78.7557 306.173 77.7033 305.56 77.6886C305.484 77.6839 305.409 77.6625 305.34 77.6257C305.271 77.5888 305.21 77.5373 305.161 77.4743C305.112 77.4113 305.075 77.3381 305.053 77.2594C305.032 77.1807 305.025 77.0981 305.035 77.0167C305.044 76.9352 305.069 76.8568 305.108 76.7861C305.147 76.7154 305.2 76.6541 305.262 76.6058C305.324 76.5576 305.395 76.5235 305.47 76.5057C305.545 76.4878 305.623 76.4866 305.698 76.5022C306.671 76.5169 309.561 76.5169 309.561 76.5169L309.394 79.0973" fill="white"/>
<path d="M338.667 74.8124C338.306 74.2339 337.111 74.649 336.5 74.9905C334.21 76.2134 332.155 77.8829 330.44 79.9128C328.745 82.0735 327.565 84.6391 326.999 87.3913C326.432 90.1435 326.498 93.0009 327.189 95.7204C329.802 104.648 339.191 109.082 345.826 104.395C350.121 101.355 351.983 95.794 351.83 90.4404C351.786 88.7107 351.524 86.9952 351.052 85.34C349.746 80.7871 345.52 75.8648 340.6 77.0969C338.918 77.5127 337.39 78.4518 336.209 79.795C334.819 81.8705 336.556 81.7675 337.588 81.6939C343.481 81.6203 346.178 87.9071 346.984 90.7097C347.949 94.0614 348.707 100.675 344.579 102.172C341.007 103.462 337.518 99.9641 335.628 96.9671C334.954 95.8031 334.369 94.5833 333.877 93.3196C330.889 86.098 332.932 79.8848 337.005 76.8599C338.612 75.7014 339.001 75.4497 338.667 74.8124Z" fill="white"/>
<path d="M364.879 74.8124C364.517 74.2339 363.322 74.649 362.71 74.9905C360.42 76.2134 358.365 77.8829 356.65 79.9128C354.953 82.0717 353.77 84.6373 353.204 87.3901C352.637 90.143 352.704 93.0012 353.399 95.7204C356.012 104.648 365.401 109.082 372.036 104.395C376.331 101.355 378.193 95.794 378.04 90.4404C377.996 88.7107 377.734 86.9952 377.262 85.34C375.956 80.7871 371.73 75.8648 366.81 77.0969C365.128 77.5127 363.6 78.4518 362.419 79.795C361.029 81.8705 362.766 81.7675 363.798 81.6939C369.691 81.6203 372.388 87.9071 373.194 90.7097C374.159 94.0614 374.917 100.675 370.789 102.172C367.217 103.462 363.728 99.9641 361.838 96.9671C361.164 95.8031 360.579 94.5833 360.087 93.3196C357.099 86.098 359.142 79.8848 363.215 76.8599C364.823 75.7014 365.212 75.4497 364.879 74.8124Z" fill="white"/>
<path d="M239.85 63.2014H239.683C239.132 63.2161 236.779 63.2161 236.779 63.2161H234.431L229.427 63.2308H227.828C227.009 63.2308 227.078 64.0022 227.494 64.298C228.621 64.9366 229.555 65.9018 230.19 67.0823C230.824 68.2628 231.134 69.6107 231.081 70.9705C231.04 72.6603 228.427 86.363 227.065 92.2347C226.912 92.5762 226.635 92.6646 226.482 92.22C225.773 89.8766 225.161 87.0887 224.425 84.2419C222.812 78.0434 221.103 71.5034 220.311 67.7233L220.269 67.5452C220.2 67.2508 220.158 66.9667 220.102 66.715C220.02 66.3615 220.044 65.9892 220.171 65.6511C220.298 65.313 220.522 65.0265 220.811 64.8324L220.894 64.7882C221.297 64.5512 221.922 64.4467 222.146 64.2686C222.729 63.7946 222.479 63.2161 221.839 63.2161H221.672C221.121 63.2308 218.768 63.2308 218.768 63.2308H216.423L211.419 63.2456H209.816C208.996 63.2456 209.065 64.0169 209.482 64.3127C210.959 65.2149 212.099 66.6347 212.706 68.3312L212.789 68.6256L213.595 71.5166C213.787 72.2415 213.805 73.0061 213.65 73.7408C212.51 78.3525 210.339 86.7163 209.314 91.4163C209.188 91.7107 208.952 91.8167 208.799 91.5635C208.16 89.3555 207.604 86.8326 206.937 84.2537C205.833 80.0423 204.713 75.6823 203.837 72.1393C203.489 69.5883 204.802 69.5442 205.587 68.58C206.277 67.7793 205.365 67.423 205.059 67.4525C201.668 67.5717 198.721 62.7672 192.996 61.1804C192.425 61.047 191.842 60.9872 191.259 61.0023C188.809 60.9995 186.459 62.0339 184.725 63.8784C182.99 65.7228 182.012 68.2264 182.005 70.8395C181.931 73.0878 182.622 75.2889 183.95 77.0361C185.278 78.7832 187.155 79.9583 189.232 80.3441C190.474 80.5386 191.742 80.2759 192.826 79.5993C193.909 78.9226 194.745 77.8724 195.195 76.6214C195.195 76.6214 195.609 75.2716 194.986 75.0935C194.389 75.0199 194.319 75.7456 194.159 76.4875C193.752 77.4818 193.019 78.284 192.098 78.7445C191.178 79.205 190.131 79.2922 189.155 78.9898C187.574 78.6599 186.147 77.7614 185.113 76.4445C184.078 75.1275 183.499 73.4717 183.471 71.7536C183.455 70.7775 183.625 69.8081 183.969 68.9037C184.314 67.9992 184.826 67.1782 185.475 66.49C186.123 65.8018 186.896 65.2604 187.746 64.8984C188.596 64.5364 189.505 64.3613 190.42 64.3834C191.338 64.4253 192.228 64.7313 192.996 65.269C193.764 65.8067 194.382 66.5561 194.784 67.4377C197.076 74.8521 202.316 95.242 203.943 104.973C204.291 107.019 204.43 109.684 204.526 110.09C204.532 110.218 204.581 110.34 204.662 110.434C204.744 110.528 204.855 110.588 204.974 110.604C205.093 110.62 205.214 110.591 205.315 110.521C205.416 110.452 205.491 110.346 205.527 110.224C207.028 105.048 208.904 102.409 212.011 100.036C213.528 98.8498 213.39 99.131 211.663 97.5C211.176 97.024 210.763 96.4686 210.439 95.8543C210.196 95.3524 210.127 94.7745 210.245 94.2234C210.954 90.5905 213.149 82.3313 214.373 77.3192C214.393 77.2223 214.441 77.1348 214.511 77.0695C214.581 77.0042 214.669 76.9646 214.761 76.9563C214.854 76.9481 214.946 76.9717 215.026 77.0238C215.105 77.0758 215.166 77.1536 215.201 77.2456L215.283 77.54C217.827 86.9857 220.814 99.1781 221.58 105.066C221.856 107.127 221.886 109.692 221.983 110.108C222.136 110.696 222.761 110.805 222.983 110.241C224.484 105.066 226.36 102.427 229.467 100.054C230.985 98.8675 230.847 99.1486 229.12 97.5177C228.819 97.2288 228.548 96.9055 228.314 96.5535C228.165 96.3028 228.064 96.0232 228.016 95.7306C227.969 95.4381 227.976 95.1385 228.038 94.849C229.081 89.6882 231.47 78.0478 232.221 75.4674C233.155 71.982 234.84 68.7776 237.141 66.11C237.666 65.5858 238.261 65.146 238.905 64.8044C239.308 64.5674 239.933 64.4629 240.157 64.2848C240.754 63.7799 240.501 63.2014 239.85 63.2014Z" fill="white"/>
<path d="M42.1305 78.2787C44.456 78.2787 46.3411 76.2673 46.3411 73.7862C46.3411 71.3051 44.456 69.2937 42.1305 69.2937C39.8051 69.2937 37.9199 71.3051 37.9199 73.7862C37.9199 76.2673 39.8051 78.2787 42.1305 78.2787Z" fill="white"/>
<path d="M75.0276 78.2787C77.3531 78.2787 79.2382 76.2673 79.2382 73.7862C79.2382 71.3051 77.3531 69.2937 75.0276 69.2937C72.7022 69.2937 70.817 71.3051 70.817 73.7862C70.817 76.2673 72.7022 78.2787 75.0276 78.2787Z" fill="white"/>
<path d="M48.0933 105.995C47.6582 106.025 47.2278 105.885 46.8825 105.601C46.5372 105.317 46.3006 104.908 46.217 104.452C44.7716 97.2075 44.7716 89.7196 46.217 82.4752C46.3301 82.0038 46.5959 81.5904 46.9674 81.308C47.3388 81.0257 47.7919 80.8927 48.2464 80.9326C49.6357 80.9326 49.3584 79.4047 49.3584 79.4047H35.5622C34.8806 79.4047 34.6447 80.9326 36.0202 80.9326C36.4747 80.8927 36.9278 81.0257 37.2992 81.308C37.6707 81.5904 37.9365 82.0038 38.0496 82.4752C39.4951 89.7196 39.4951 97.2075 38.0496 104.452C37.9543 104.914 37.7004 105.321 37.3379 105.594C36.9753 105.866 36.5304 105.984 36.0906 105.924C34.7013 105.924 34.7013 107.525 35.827 107.525H48.2437C49.4688 107.521 49.4839 105.995 48.0933 105.995Z" fill="white"/>
<path d="M81.0042 105.994C80.5691 106.025 80.1387 105.885 79.7934 105.601C79.448 105.317 79.2115 104.908 79.1279 104.452C78.3954 100.842 78.0318 97.1573 78.0435 93.4635C77.957 90.2048 78.2134 86.9461 78.8078 83.7484C78.9353 82.6537 79.1665 81.5757 79.4976 80.5307C79.7197 79.8933 79.6645 79.4178 78.4974 79.4178H68.4634C67.7956 79.4178 67.5321 80.9458 68.9214 80.9458C69.3759 80.9059 69.829 81.0389 70.2005 81.3212C70.5719 81.6036 70.8377 82.017 70.9508 82.4884C72.3962 89.7328 72.3962 97.2207 70.9508 104.465C70.8555 104.927 70.6016 105.334 70.2391 105.607C69.8766 105.879 69.4316 105.997 68.9918 105.937C67.6025 105.937 67.6025 107.539 68.7283 107.539H81.1449C82.3658 107.521 82.3796 105.994 81.0042 105.994Z" fill="white"/>
<path d="M71.4144 79.6872L69.1077 79.4208C67.6894 79.4208 61.9088 79.4355 61.1859 79.4355C60.463 79.4355 60.5181 80.117 60.8934 80.3702C61.7384 80.8518 62.4262 81.5961 62.8655 82.5044C63.3048 83.4127 63.4749 84.4421 63.3533 85.4559C62.6057 88.0885 61.5878 90.6249 60.3181 93.0189C60.0422 93.5827 59.54 93.7152 59.1785 93.2412C57.6839 89.917 56.7499 86.3379 56.4193 82.668C56.3917 82.0601 56.2813 81.3623 57.1091 81.037C57.9369 80.7117 57.9148 79.4178 57.1229 79.4178H46.7688C45.2678 79.4178 46.0597 80.7824 47.2269 82.4869C49.506 85.9416 51.4393 89.6418 52.9951 93.5268C54.3997 97.1838 55.5976 100.927 56.5821 104.737C56.72 105.257 57.4581 108.37 57.5685 108.712C57.7354 109.217 58.2914 109.275 58.4584 108.771C59.5151 104.129 60.5154 102.113 63.1422 99.843C64.4211 98.7155 63.3367 98.0045 62.7117 97.6351C62.1391 97.2608 61.6158 96.8069 61.1555 96.2853C61.1003 96.0856 61.0841 95.876 61.1078 95.6694C61.1315 95.4628 61.1947 95.2636 61.2935 95.0841C61.7805 94.0022 64.588 86.6173 65.4627 85.163C65.9954 84.1087 66.7316 83.1869 67.6226 82.4584C68.5137 81.73 69.5394 81.2114 70.6322 80.9369C71.9428 80.5778 71.4144 79.6872 71.4144 79.6872Z" fill="white"/>
<path d="M103.783 86.5261C102.838 82.3295 94.1934 75.0447 85.2424 82.9669C75.9589 91.5824 82.421 107.731 92.3999 107.731C102.379 107.731 103.504 99.428 102.99 96.8624C102.99 96.8624 102.628 95.1122 101.461 96.8624C94.8735 104.277 89.4585 98.4492 88.8004 96.5503C90.1897 95.6907 103.148 88.3941 103.148 88.3941C103.373 88.1487 103.545 87.8552 103.655 87.5331C103.764 87.211 103.808 86.8677 103.783 86.5261ZM96.0972 89.8925C93.6474 91.5736 91.1094 93.1035 88.4955 94.4748C88.0651 94.6677 87.6195 95.1269 87.0359 93.5254L86.6744 92.6658C86.438 91.9436 86.2295 91.2114 86.0495 90.471C84.2711 83.0861 90.8864 80.8767 94.0126 82.2412C97.1389 83.6057 97.0851 88.9726 96.0972 89.8925Z" fill="white"/>
<path d="M180.754 86.5261C179.809 82.3295 171.164 75.0447 162.213 82.9669C152.929 91.5824 159.392 107.731 169.357 107.731C179.322 107.731 180.461 99.428 179.947 96.8624C179.947 96.8624 179.585 95.1122 178.418 96.8624C171.83 104.277 166.415 98.4492 165.757 96.5503C167.137 95.6907 180.105 88.3941 180.105 88.3941C180.105 88.3941 180.976 87.4432 180.754 86.5261ZM173.082 89.8925C170.632 91.5736 168.094 93.1035 165.48 94.4748C165.049 94.6677 164.604 95.1269 164.02 93.5254L163.659 92.6658C163.422 91.9436 163.214 91.2114 163.034 90.471C161.255 83.0861 167.871 80.8767 170.997 82.2412C174.123 83.6057 174.068 88.974 173.082 89.8955V89.8925Z" fill="white"/>
<path d="M155.806 106.617C155.709 106.29 155.392 106.009 154.792 106.009C154.361 106.039 153.934 105.901 153.591 105.62C153.248 105.339 153.013 104.934 152.929 104.481C152.873 103.946 152.93 103.403 153.096 102.894C153.861 100.597 154.986 98.4462 155.696 96.1234C156.641 93.3546 157.017 90.4013 156.799 87.4637C156.549 85.2233 155.573 83.1466 154.04 81.592C152.763 80.1828 151.067 79.2909 149.241 79.0691C147.416 78.8473 145.575 79.3094 144.034 80.3761C143.491 80.7471 142.436 81.7259 141.754 81.7009C141.171 81.6862 141.102 81.33 141.102 80.9443C141.143 80.8251 141.171 80.7073 141.214 80.5734C141.436 79.936 141.381 79.4606 140.213 79.4606H130.193C129.526 79.4606 129.262 80.9885 130.651 80.9885C131.106 80.9486 131.559 81.0816 131.93 81.3639C132.302 81.6463 132.568 82.0597 132.681 82.5311C134.126 89.7755 134.126 97.2634 132.681 104.508C132.539 104.974 132.256 105.378 131.876 105.654C131.496 105.931 131.041 106.065 130.582 106.036C129.957 106.05 129.317 105.992 128.692 105.962C128.414 105.975 128.136 105.928 127.875 105.823C127.615 105.719 127.376 105.559 127.175 105.354C126.854 104.972 126.634 104.506 126.536 104.004C126.447 103.426 126.5 102.834 126.689 102.284C127.453 99.9844 128.524 98.5021 129.233 96.1587C130.178 93.3899 130.555 90.4366 130.337 87.4991C130.086 85.2587 129.11 83.1819 127.577 81.6273C126.3 80.2181 124.604 79.3263 122.779 79.1045C120.953 78.8827 119.112 79.3447 117.571 80.4115C117.029 80.7824 115.973 81.7613 115.292 81.7363C114.722 81.7215 114.638 81.3653 114.638 80.9797C114.679 80.8604 114.707 80.7427 114.75 80.6087C114.972 79.9713 114.917 79.4959 113.75 79.4959H103.729C103.062 79.4959 102.798 81.0238 104.187 81.0238C104.642 80.9839 105.095 81.1169 105.466 81.3993C105.838 81.6816 106.104 82.0951 106.217 82.5664C107.662 89.8108 107.662 97.2987 106.217 104.543C106.121 105.005 105.868 105.412 105.505 105.685C105.143 105.957 104.698 106.075 104.258 106.015C102.878 106.015 102.868 107.617 103.994 107.617H116.411C117.619 107.617 117.635 106.089 116.258 106.089C115.823 106.119 115.392 105.979 115.047 105.695C114.702 105.411 114.465 105.003 114.381 104.546C113.649 100.936 113.285 97.2515 113.297 93.5577C113.325 90.889 113.047 87.5668 114.548 85.269C114.908 84.6725 115.388 84.1688 115.953 83.7944C116.518 83.4199 117.153 83.184 117.814 83.1037C118.785 83.0254 119.75 83.3314 120.523 83.9634C123.359 86.3509 123.359 93.0234 120.746 101.461C119.078 106.466 120.439 107.303 120.579 107.466C120.718 107.63 121.148 107.645 121.469 107.645L130.962 107.63H142.886C144.094 107.63 144.109 106.102 142.733 106.102C142.298 106.132 141.867 105.992 141.522 105.708C141.177 105.424 140.94 105.016 140.856 104.559C140.124 100.949 139.76 97.2648 139.772 93.571C139.8 90.9023 139.522 87.58 141.037 85.2823C141.397 84.6858 141.877 84.1821 142.442 83.8076C143.006 83.4331 143.642 83.1972 144.303 83.117C145.272 83.0406 146.234 83.3407 147.012 83.9619C149.847 86.3494 149.847 93.0219 147.234 101.459C145.566 106.464 146.928 107.302 147.067 107.465C147.207 107.628 147.637 107.643 147.957 107.643L155.06 107.628L155.073 107.614C155.685 107.48 155.949 107.025 155.838 106.635L155.806 106.617Z" fill="white"/>
<path d="M41.1179 66.7883H40.951C40.3991 66.803 38.0469 66.803 38.0469 66.803H35.7015L30.6976 66.8178H29.0986C28.2791 66.8178 28.3481 67.5891 28.7648 67.8702C29.8888 68.5041 30.8219 69.4642 31.4566 70.6396C32.0913 71.8149 32.4016 73.1578 32.3518 74.5133C32.3104 76.0265 29.238 86.9545 27.599 93.465C27.5501 93.5017 27.4901 93.5176 27.4309 93.5094C27.3716 93.5012 27.3174 93.4696 27.2789 93.4209C27.2651 93.4061 27.2651 93.3914 27.2513 93.3767C26.6125 91.182 25.6385 88.7208 24.9722 86.1404C23.8685 81.9586 22.7482 77.6133 21.8722 74.0849C21.5245 71.5487 22.8379 71.4898 23.6229 70.5404C24.3127 69.7396 23.4008 69.3834 23.0945 69.4129C19.7034 69.5321 16.7565 64.757 11.0311 63.1702C10.4614 63.0344 9.87734 62.9795 9.29414 63.0068C8.0821 62.9977 6.88027 63.2435 5.75733 63.7303C4.6344 64.217 3.61238 64.9351 2.7497 65.8435C1.88703 66.7519 1.2006 67.8328 0.729674 69.0244C0.258744 70.216 0.0125412 71.4949 0.00513864 72.7881C-0.0671524 75.031 0.625335 77.2258 1.95419 78.9654C3.28304 80.7051 5.15808 81.8715 7.2316 82.2485C8.47031 82.4432 9.73429 82.1842 10.8172 81.5137C11.9002 80.8432 12.7381 79.8009 13.1943 78.5568C13.1943 78.5568 13.6082 77.2217 12.986 77.0436C12.3886 76.97 12.3183 77.6957 12.1582 78.4229C11.7479 79.4138 11.0146 80.2122 10.0944 80.6702C9.17427 81.1282 8.12967 81.2146 7.15434 80.9134C5.57628 80.5869 4.15097 79.6926 3.11647 78.3799C2.08197 77.0672 1.5009 75.4155 1.4703 73.7007C1.45663 72.7265 1.62757 71.7593 1.97284 70.8572C2.31811 69.9552 2.83061 69.1368 3.47958 68.4513C4.12855 67.7658 4.90063 67.2271 5.74949 66.8678C6.59835 66.5084 7.5065 66.3357 8.41946 66.36C9.33566 66.4017 10.2244 66.706 10.9923 67.2409C11.7602 67.7758 12.3788 68.5215 12.7832 69.3996C15.1037 76.7845 20.7464 97.0405 22.373 106.723C22.7206 108.769 22.9841 110.148 23.0821 110.55C23.0881 110.678 23.1362 110.8 23.2181 110.894C23.2999 110.989 23.4102 111.049 23.5295 111.065C23.6489 111.081 23.7698 111.051 23.8708 110.982C23.9719 110.912 24.0468 110.807 24.0823 110.684C25.5833 105.523 27.3341 104.174 30.4479 101.802C31.9655 100.625 31.8275 100.919 30.1002 99.2661C29.6175 98.7914 29.2049 98.2416 28.8765 97.6351C28.7503 97.3817 28.6702 97.1049 28.6406 96.8197C29.9333 91.1849 32.796 81.2785 33.4775 78.9366C34.4158 75.4616 36.1003 72.2678 38.3973 69.6086C38.9199 69.0847 39.5151 68.6498 40.1618 68.3192C40.5647 68.0822 41.1896 67.9777 41.4131 67.7996C42.0064 67.3653 41.7553 66.7883 41.1179 66.7883Z" fill="white"/>
<path d="M202.797 41.3147C199.963 41.3442 197.201 40.4314 194.943 38.7199C194.83 38.6247 194.758 38.4897 194.742 38.3429C194.725 38.1961 194.766 38.0486 194.855 37.931C194.945 37.8133 195.076 37.7344 195.221 37.7105C195.367 37.6866 195.517 37.7196 195.639 37.8026C197.696 39.3574 200.211 40.186 202.79 40.1587C205.358 40.1636 207.86 39.3426 209.926 37.8167C209.986 37.7731 210.054 37.7417 210.126 37.7245C210.198 37.7073 210.272 37.7045 210.345 37.7163C210.418 37.7281 210.488 37.7544 210.551 37.7934C210.614 37.8325 210.669 37.8837 210.711 37.944C210.801 38.0682 210.838 38.2226 210.814 38.3738C210.79 38.5249 210.707 38.6606 210.584 38.7513C208.33 40.427 205.593 41.3264 202.784 41.3147H202.797Z" fill="white"/>
<path d="M192.384 35.8407C192.291 35.8394 192.2 35.8158 192.118 35.7718C192.036 35.7278 191.966 35.6647 191.913 35.5878C190.382 33.387 189.564 30.7686 189.571 28.0876C189.57 26.0209 190.053 23.9828 190.982 22.1367C191.911 20.2906 193.26 18.6879 194.92 17.4574C196.58 16.2269 198.506 15.4028 200.543 15.0512C202.579 14.6996 204.67 14.8303 206.647 15.4329C208.623 16.0354 210.431 17.093 211.926 18.5208C213.42 19.9486 214.558 21.7067 215.25 23.6542C215.942 25.6016 216.167 27.6841 215.909 29.7345C215.65 31.7848 214.914 33.746 213.76 35.4605C213.677 35.5823 213.549 35.6674 213.405 35.6981C213.261 35.7289 213.11 35.703 212.984 35.6258C212.858 35.5486 212.766 35.4261 212.728 35.2834C212.69 35.1407 212.708 34.9887 212.779 34.859C212.794 34.8433 212.794 34.8275 212.81 34.8118C213.861 33.245 214.53 31.4537 214.764 29.5817C214.997 27.7096 214.789 25.8088 214.156 24.0317C213.522 22.2546 212.482 20.6506 211.116 19.3484C209.751 18.0461 208.1 17.0818 206.295 16.5327C204.49 15.9837 202.582 15.8651 200.723 16.1867C198.864 16.5082 197.106 17.2608 195.59 18.3842C194.075 19.5075 192.843 20.9704 191.995 22.6555C191.147 24.3406 190.705 26.201 190.705 28.0876C190.686 30.5334 191.433 32.9239 192.841 34.9234C192.924 35.0474 192.954 35.1984 192.928 35.3448C192.901 35.4912 192.819 35.6216 192.698 35.7087C192.662 35.7559 192.614 35.7925 192.559 35.8148C192.503 35.8372 192.443 35.8445 192.384 35.8359V35.8407Z" fill="white"/>
<path d="M202.907 33.3716C202.221 33.3716 201.551 33.1683 200.981 32.7876C200.412 32.4069 199.968 31.8657 199.705 31.2325C199.443 30.5994 199.374 29.9027 199.508 29.2306C199.642 28.5584 199.972 27.941 200.456 27.4564C200.941 26.9718 201.558 26.6418 202.231 26.5081C202.903 26.3744 203.599 26.443 204.233 26.7053C204.866 26.9675 205.407 27.4117 205.788 27.9815C206.168 28.5513 206.372 29.2212 206.372 29.9065C206.372 30.8255 206.006 31.7069 205.357 32.3567C204.707 33.0065 203.826 33.3716 202.907 33.3716ZM202.907 27.4374C202.418 27.4374 201.941 27.5822 201.535 27.8535C201.129 28.1248 200.812 28.5104 200.625 28.9616C200.438 29.4128 200.39 29.9093 200.485 30.3883C200.58 30.8672 200.815 31.3072 201.161 31.6525C201.506 31.9978 201.946 32.233 202.425 32.3283C202.904 32.4235 203.4 32.3746 203.851 32.1878C204.303 32.0009 204.688 31.6844 204.96 31.2783C205.231 30.8723 205.376 30.3949 205.376 29.9065C205.375 29.2519 205.114 28.6244 204.652 28.1615C204.189 27.6986 203.561 27.4382 202.907 27.4374Z" fill="white"/>
<path d="M200.423 28.4819C200.348 28.4823 200.274 28.4679 200.205 28.4394C200.135 28.4109 200.072 28.3689 200.019 28.3158C199.966 28.2628 199.924 28.1998 199.896 28.1304C199.867 28.0611 199.853 27.9867 199.853 27.9117V15.7292C199.861 15.5834 199.924 15.446 200.03 15.3455C200.136 15.245 200.276 15.189 200.422 15.189C200.569 15.189 200.709 15.245 200.815 15.3455C200.921 15.446 200.984 15.5834 200.992 15.7292V27.9133C200.992 27.988 200.977 28.0621 200.949 28.1311C200.92 28.2002 200.879 28.263 200.826 28.3158C200.773 28.3687 200.71 28.4106 200.641 28.4391C200.572 28.4676 200.498 28.4821 200.423 28.4819Z" fill="white"/>
<path d="M205.407 28.6249C205.332 28.6253 205.258 28.6109 205.188 28.5824C205.119 28.5538 205.056 28.5119 205.003 28.4588C204.95 28.4058 204.908 28.3428 204.88 28.2734C204.851 28.2041 204.837 28.1297 204.837 28.0547V15.7764C204.845 15.6306 204.908 15.4932 205.014 15.3927C205.12 15.2922 205.26 15.2361 205.406 15.2361C205.552 15.2361 205.693 15.2922 205.799 15.3927C205.905 15.4932 205.968 15.6306 205.976 15.7764V28.0547C205.976 28.1297 205.962 28.2041 205.933 28.2734C205.905 28.3428 205.863 28.4058 205.81 28.4588C205.757 28.5119 205.694 28.5538 205.624 28.5824C205.555 28.6109 205.482 28.6253 205.407 28.6249Z" fill="white"/>
<path d="M202.924 33.6402C198.5 33.7591 194.134 32.6237 190.328 30.3652C190.206 30.2816 190.121 30.1545 190.091 30.01C190.06 29.8655 190.086 29.7147 190.163 29.5888C190.24 29.4628 190.363 29.3713 190.505 29.3331C190.648 29.2949 190.8 29.313 190.93 29.3835C190.945 29.3992 190.961 29.3992 190.977 29.4149C197.18 33.5444 209.174 33.4815 214.728 29.2877C214.85 29.2047 214.999 29.1717 215.145 29.1956C215.291 29.2195 215.422 29.2984 215.511 29.4161C215.6 29.5337 215.641 29.6812 215.625 29.828C215.609 29.9748 215.537 30.1098 215.424 30.205C211.712 32.6144 207.345 33.8156 202.924 33.6402Z" fill="white"/>
<path d="M205.47 28.7835C205.318 28.782 205.172 28.7219 205.063 28.6157C204.954 28.5095 204.89 28.3654 204.884 28.2133C204.881 28.0693 204.933 27.9295 205.03 27.8232C205.127 27.717 205.262 27.6524 205.406 27.6431C208.709 27.3795 211.909 26.3618 214.758 24.6682C214.888 24.593 215.042 24.5708 215.188 24.6062C215.335 24.6415 215.462 24.7318 215.543 24.8582C215.622 24.9876 215.646 25.143 215.61 25.2902C215.575 25.4375 215.482 25.5646 215.353 25.6436C212.357 27.4336 208.989 28.5086 205.511 28.785L205.464 28.7693L205.47 28.7835Z" fill="white"/>
<path d="M200.106 28.862H200.043C196.719 28.4474 193.506 27.3941 190.581 25.7598C190.447 25.6883 190.346 25.5665 190.302 25.4209C190.257 25.2754 190.273 25.1182 190.344 24.9839C190.415 24.8495 190.537 24.749 190.683 24.7046C190.828 24.6601 190.986 24.6752 191.12 24.7467C193.916 26.3148 196.989 27.3251 200.17 27.7216C200.314 27.74 200.445 27.8119 200.537 27.923C200.63 28.034 200.677 28.176 200.669 28.3202C200.661 28.4645 200.598 28.6004 200.494 28.7006C200.39 28.8008 200.252 28.8579 200.108 28.8604L200.106 28.862Z" fill="white"/>
<path d="M202.891 18.9084C203.415 18.9084 203.84 18.4836 203.84 17.9596C203.84 17.4357 203.415 17.0109 202.891 17.0109C202.367 17.0109 201.942 17.4357 201.942 17.9596C201.942 18.4836 202.367 18.9084 202.891 18.9084Z" fill="white"/>
<path d="M202.891 22.0561C203.415 22.0561 203.84 21.6313 203.84 21.1073C203.84 20.5834 203.415 20.1586 202.891 20.1586C202.367 20.1586 201.942 20.5834 201.942 21.1073C201.942 21.6313 202.367 22.0561 202.891 22.0561Z" fill="white"/>
<path d="M202.891 25.1896C203.415 25.1896 203.84 24.7649 203.84 24.2409C203.84 23.7169 203.415 23.2922 202.891 23.2922C202.367 23.2922 201.942 23.7169 201.942 24.2409C201.942 24.7649 202.367 25.1896 202.891 25.1896Z" fill="white"/>
<path d="M209.094 30.8867C209.592 30.8867 209.995 30.469 209.995 29.9537C209.995 29.4384 209.592 29.0207 209.094 29.0207C208.596 29.0207 208.192 29.4384 208.192 29.9537C208.192 30.469 208.596 30.8867 209.094 30.8867Z" fill="white"/>
<path d="M212.621 29.6363C213.119 29.6363 213.523 29.2186 213.523 28.7033C213.523 28.188 213.119 27.7703 212.621 27.7703C212.124 27.7703 211.72 28.188 211.72 28.7033C211.72 29.2186 212.124 29.6363 212.621 29.6363Z" fill="white"/>
<path d="M196.704 30.8553C197.202 30.8553 197.605 30.4376 197.605 29.9223C197.605 29.407 197.202 28.9893 196.704 28.9893C196.206 28.9893 195.802 29.407 195.802 29.9223C195.802 30.4376 196.206 30.8553 196.704 30.8553Z" fill="white"/>
<path d="M193.159 29.6678C193.657 29.6678 194.06 29.2501 194.06 28.7348C194.06 28.2195 193.657 27.8018 193.159 27.8018C192.661 27.8018 192.257 28.2195 192.257 28.7348C192.257 29.2501 192.661 29.6678 193.159 29.6678Z" fill="white"/>
<path d="M203.001 39.1C188.253 39.1 173 35.8879 173 30.5082C173 26.8374 179.754 23.8624 191.055 22.5493L191.941 22.4551L190.944 25.4928L190.595 25.5557C183.395 26.7588 180.847 28.7207 180.847 30.0181C180.847 32.5658 189.851 35.3978 202.795 35.3978C215.739 35.3978 224.743 32.5705 224.743 30.0181C224.743 28.7207 222.179 26.7588 214.979 25.5557L214.63 25.4928L213.633 22.4236L214.519 22.5179C223.459 23.531 233 26.1573 233 30.4924C232.984 35.8879 217.733 39.1 203.001 39.1ZM190.295 23.798C179.143 25.2117 174.139 28.1646 174.139 30.5066C174.139 34.0988 185.737 37.9597 203.001 37.9597C220.265 37.9597 231.863 34.1145 231.863 30.5066C231.863 27.7217 225.09 24.9839 215.263 23.765L215.501 24.4923C219.536 25.2038 225.881 26.8185 225.881 30.0149C225.881 34.2559 213.982 36.5334 202.792 36.5334C191.602 36.5334 179.702 34.2543 179.702 30.0149C179.702 26.7871 186.032 25.1724 190.069 24.4766L190.29 23.7965L190.295 23.798Z" fill="white"/>
<path d="M207.407 16.9308C205.46 15.3601 203.704 11.7097 204.559 10.1422C204.667 9.93221 204.824 9.75131 205.017 9.61465C205.21 9.47799 205.432 9.38956 205.666 9.35679C207.027 9.4491 208.309 10.0278 209.279 10.9872V5.66402C207.776 6.8829 206.178 7.62585 204.832 6.26561C203.772 5.18967 204.959 2.64195 205.83 1.13877H199.976C201.51 3.90796 201.546 5.53679 201.02 6.16508C200.078 7.28815 198.694 7.13108 196.622 5.62633V11.0139C197.584 10.0771 198.844 9.50593 200.183 9.3992C200.424 9.43064 200.655 9.51691 200.858 9.65141C201.061 9.78591 201.23 9.96506 201.353 10.1751C202.476 12.0741 200.056 15.1905 198.441 16.7423L197.656 15.9193C199.459 14.1789 200.979 11.7741 200.378 10.761C200.348 10.6971 200.301 10.6427 200.242 10.6036C200.183 10.5646 200.115 10.5424 200.045 10.5395C199.222 10.428 197.434 11.7427 196.452 12.6914L195.486 13.6339V3.2671L196.419 4.02733C199.332 6.40069 199.947 5.67345 200.153 5.44098C200.28 5.23522 200.359 3.87026 198.507 0.868609L197.921 0H207.878L207.308 0.885887C206.153 2.68908 205.187 5.03102 205.63 5.47397C206.152 5.99545 206.912 6.35985 209.444 3.98649L210.41 3.0849V13.593L209.444 12.66C208.431 11.6783 206.659 10.3495 205.831 10.4767C205.77 10.4836 205.712 10.5061 205.662 10.5422C205.612 10.5783 205.573 10.6266 205.547 10.6825C205.12 11.4678 206.258 14.5433 208.11 16.0308L207.407 16.9308Z" fill="white"/>
<path d="M202.859 11.3924C202.202 11.3924 201.559 11.1975 201.013 10.8323C200.466 10.4671 200.04 9.94799 199.789 9.34067C199.537 8.73335 199.471 8.06508 199.6 7.42035C199.728 6.77563 200.044 6.18341 200.509 5.71859C200.974 5.25377 201.566 4.93723 202.211 4.80898C202.856 4.68074 203.524 4.74656 204.131 4.99812C204.739 5.24968 205.258 5.67568 205.623 6.22225C205.988 6.76882 206.183 7.41141 206.183 8.06877C206.183 8.50529 206.097 8.93758 205.93 9.34091C205.764 9.74425 205.519 10.1107 205.21 10.4194C204.901 10.7281 204.535 10.9729 204.132 11.1398C203.728 11.3068 203.296 11.3926 202.859 11.3924ZM202.859 5.73781C202.399 5.73781 201.95 5.87425 201.567 6.12986C201.184 6.38547 200.886 6.74878 200.71 7.17384C200.534 7.59891 200.488 8.06663 200.578 8.51788C200.668 8.96913 200.889 9.38362 201.215 9.70895C201.54 10.0343 201.954 10.2558 202.406 10.3456C202.857 10.4354 203.325 10.3893 203.75 10.2132C204.175 10.0372 204.538 9.73899 204.794 9.35644C205.049 8.97389 205.186 8.52414 205.186 8.06405C205.185 7.44735 204.939 6.85615 204.503 6.42007C204.067 5.984 203.476 5.73865 202.859 5.73781Z" fill="white"/>
</svg>
